<svg id="Layer_1" data-name="Layer 1" xmlns="http://www.w3.org/2000/svg" viewBox="0 0 448.58 293.89"><defs><style>.cls-1{fill:#FEFBD7;}</style></defs><title>logo</title><path class="cls-1" d="M382,391.93a6.07,6.07,0,1,1,0,12.14,6.07,6.07,0,1,1,0-12.14Zm-.07,1.22a4.83,4.83,0,0,0,.07,9.66,4.64,4.64,0,0,0,4.63-4.8,4.71,4.71,0,0,0-4.67-4.87Zm-.92,8h-1.41v-6a16.4,16.4,0,0,1,2.33-.19,3.26,3.26,0,0,1,2.08.48,1.52,1.52,0,0,1,.63,1.29,1.56,1.56,0,0,1-1.26,1.44v.07c.59.18.89.66,1.08,1.48a5.24,5.24,0,0,0,.44,1.48h-1.48a4.79,4.79,0,0,1-.48-1.48c-.11-.63-.48-.92-1.26-.92h-.67Zm0-3.39h.67c.78,0,1.41-.26,1.41-.89s-.41-.92-1.3-.92a3.5,3.5,0,0,0-.78.07Z" transform="translate(-82.18 -261.66)"/><polygon class="cls-1" points="211.98 0 209.65 0 171.04 74.99 106.15 35.22 102.3 35.09 135.39 137.62 157.8 134.58 138.38 77.46 181.67 102.61 189.58 86.36 189.56 86.35 210.56 44.58 228.29 81.44 247.22 70.41 211.98 0"/><polygon class="cls-1" points="314.55 35.22 210.35 98.53 194.77 89.42 187.06 105.75 209.03 118.51 210.35 118.51 211.67 118.51 282.32 77.46 262.9 134.58 285.31 137.62 318.4 35.09 314.55 35.22"/><polygon class="cls-1" points="55.01 206.56 3.75 159.65 0 159.65 0 241.25 16.44 241.25 16.44 192 53.69 226.03 56.17 226.03 91.54 192.14 91.54 241.25 107.98 241.25 107.98 159.65 104.22 159.65 55.01 206.56"/><rect class="cls-1" x="128.23" y="160.88" width="16.44" height="80.37"/><path class="cls-1" d="M290.45,420.21l-55.57,82.71h17.59l9.94-14.85h59.34l10.18,14.85h18.23l-56.73-82.71ZM312,474H271.85l19.88-29.57Z" transform="translate(-82.18 -261.66)"/><polygon class="cls-1" points="329.77 206.56 278.5 159.65 274.75 159.65 274.75 241.25 291.2 241.25 291.2 192 328.44 226.03 330.92 226.03 366.3 192.14 366.3 241.25 382.74 241.25 382.74 159.65 378.98 159.65 329.77 206.56"/><rect class="cls-1" x="402.99" y="160.88" width="16.44" height="80.37"/><path class="cls-1" d="M105.45,555.55C92.3,555.55,83,550,83,540.28s10-15.7,22.18-15.7c9.28,0,13.82,1.74,15.61,2.42v3.57l-.19.15c-2.27-1.55-6.43-3.87-15.27-3.87-10.39,0-17.73,4.44-17.73,13.43,0,8.65,6.33,13,17.88,13,8,0,12-2.08,16-5.22l.24.1V552C119.56,553.18,114.19,555.55,105.45,555.55Z" transform="translate(-82.18 -261.66)"/><path class="cls-1" d="M147.14,555.55c-11.31,0-21.65-5.07-21.65-15.37,0-10.72,10.87-15.61,21.65-15.61s21.64,4.78,21.64,15.51C168.79,550.38,158.45,555.55,147.14,555.55Zm-.1-2.27c10.87,0,17.15-4.78,17.15-13.09s-6.62-13.33-17.15-13.33-17,4.88-17,13.24S136.22,553.28,147,553.28Z" transform="translate(-82.18 -261.66)"/><path class="cls-1" d="M175.55,525h3.77c8.79,8.26,19.61,17.92,28.46,25.7.1-6.81.1-19.33,0-25.56L208,525h2.42l.19.2c-.19,8.64-.19,20.67,0,29.76l-.24.2h-3.58c-7.59-7.34-20.05-18.51-28.6-26-.09,6-.14,18.31,0,25.85l-.19.14H175.5l-.14-.14c.14-7.44.14-22.86,0-29.86Z" transform="translate(-82.18 -261.66)"/><path class="cls-1" d="M219.08,555c.19-9.28.19-22.62,0-29.62l.19-.19c3.72-.14,6.91-.63,15.41-.63,12.32,0,23.19,5.08,23.19,15.8,0,9.57-10.53,15.17-23.19,15.17-7.54,0-12-.43-15.41-.39Zm4.11-2.37a73.7,73.7,0,0,0,10.82.67c13.14,0,19.28-4.83,19.28-12.85,0-8.79-6.47-13.62-19.52-13.62a60.67,60.67,0,0,0-10.58.87C223,532.65,223.08,544.49,223.18,552.65Z" transform="translate(-82.18 -261.66)"/><path class="cls-1" d="M284.15,555.55c-11.31,0-21.65-5.07-21.65-15.37,0-10.72,10.87-15.61,21.65-15.61s21.65,4.78,21.65,15.51C305.8,550.38,295.46,555.55,284.15,555.55Zm-.1-2.27c10.87,0,17.15-4.78,17.15-13.09s-6.62-13.33-17.15-13.33-17,4.88-17,13.24S273.23,553.28,284.06,553.28Z" transform="translate(-82.18 -261.66)"/><path class="cls-1" d="M330.1,555.12h-3.82l-.14-.09c.19-9.28.19-23,0-29.91l.19-.14h3.77l.19.2c-.15,4.69-.19,10.87-.19,17.15,9.9-6.48,17.1-12,24.26-17.35h5.41l.1.2c-5.27,3.14-11.69,7.44-18.36,12.08,5.55,5.12,13.19,11.93,20.34,17.68l-.15.2h-5.75c-6.57-6.28-11.55-10.63-17.68-15.61l-8.17,5.7c0,3.43.09,6.77.19,9.76Z" transform="translate(-82.18 -261.66)"/><path class="cls-1" d="M367.06,555c.19-9.28.19-22.86,0-29.81l.14-.2H371l.19.14c-.19,10.44-.15,20.1,0,29.86l-.19.14H367.2Z" transform="translate(-82.18 -261.66)"/><path class="cls-1" d="M380.15,525h3.77c8.79,8.26,19.62,17.92,28.46,25.7.1-6.81.1-19.33,0-25.56l.19-.14H415l.19.2c-.19,8.64-.19,20.67,0,29.76l-.24.2h-3.57c-7.58-7.34-20.05-18.51-28.6-26-.1,6-.14,18.31,0,25.85l-.19.14H380.1L380,555c.14-7.44.14-22.86,0-29.86Z" transform="translate(-82.18 -261.66)"/><path class="cls-1" d="M443.92,555.55c-13,0-22.18-5.41-22.18-15.32,0-9.57,10.1-15.65,22-15.65,9.91,0,14.54,1.69,16.33,2.46v4l-.2.09c-2.17-1.83-6.14-4.3-16-4.3-10.53,0-17.54,4.49-17.54,13.38s6,13,17.59,13a33.77,33.77,0,0,0,13.19-2.41c.1-3.43.1-5.36,0-10.49l.19-.19H461l.19.14c-.19,4.93-.19,7.68,0,12.13A43.63,43.63,0,0,1,443.92,555.55Z" transform="translate(-82.18 -261.66)"/><path class="cls-1" d="M491.9,541.68c-4.69-.77-11.89-.09-18.21-1.55-4.3-1-6.57-3.19-6.57-6.86,0-5.22,5-8.7,16.09-8.7,8.94,0,13.29,1.84,15,2.8v3.53l-.24.1c-2-1.69-6.38-4.15-15-4.15-10.1,0-12.56,2.95-12.56,5.7,0,2.46,1.64,3.87,4.83,4.49,4.88,1,11.74.43,17.49,1.26,5,.72,8,2.75,8,6.91,0,5.85-5.36,10.34-17.88,10.34-9,0-14.35-2.13-16.47-3.53v-3.91l.19-.09c3.53,3.09,8.26,5.26,16.52,5.26,10.44,0,14.06-3,14.06-6.81C497.16,544,495.47,542.26,491.9,541.68Z" transform="translate(-82.18 -261.66)"/><path class="cls-1" d="M518.64,422.11v1.56h-3v7.91h-1.88v-7.91h-3v-1.56Zm10.24,9.47-.35-5.57c0-.73,0-1.6-.07-2.65h-.1c-.25.83-.52,1.95-.8,2.82l-1.71,5.26h-2l-1.67-5.4c-.17-.7-.49-1.85-.7-2.68h-.1c0,.87,0,1.81-.07,2.65l-.35,5.57H519.2l.7-9.47h2.85l1.6,4.63a21.78,21.78,0,0,1,.63,2.4H525c.21-.84.45-1.67.63-2.33l1.64-4.7h2.75l.7,9.47Z" transform="translate(-82.18 -261.66)"/></svg>