<?xml version="1.0" standalone="no"?>
<!DOCTYPE svg PUBLIC "-//W3C//DTD SVG 20010904//EN"
 "http://www.w3.org/TR/2001/REC-SVG-20010904/DTD/svg10.dtd">
<svg version="1.0" xmlns="http://www.w3.org/2000/svg"
 width="254.000000pt" height="198.000000pt" viewBox="0 0 254.000000 198.000000"
 preserveAspectRatio="xMidYMid meet">
<metadata>
Created by potrace 1.15, written by Peter Selinger 2001-2017
</metadata>
<g transform="translate(0.000000,198.000000) scale(0.100000,-0.100000)"
fill="#000000" stroke="none">
<path d="M405 1968 c-136 -26 -287 -143 -351 -273 -67 -136 -69 -284 -5 -421
40 -84 137 -184 218 -222 53 -25 69 -27 174 -27 115 0 116 0 193 39 60 31 82
37 94 29 58 -36 25 -289 -58 -453 -30 -59 -93 -153 -144 -213 -81 -98 -257
-220 -377 -263 l-49 -18 0 -73 0 -73 53 21 c421 165 686 381 837 679 90 179
124 326 123 535 0 211 -40 353 -138 490 -137 193 -352 285 -570 243z"/>
<path d="M1840 1970 c-112 -20 -200 -70 -284 -161 -181 -195 -177 -480 8 -665
35 -35 86 -73 121 -90 56 -27 68 -29 176 -29 115 0 117 0 192 39 42 21 83 36
92 32 27 -10 37 -57 32 -142 -11 -162 -75 -325 -186 -471 -100 -132 -213 -222
-377 -300 l-94 -44 0 -66 0 -65 30 5 c44 9 258 108 351 162 427 251 663 668
635 1122 -14 219 -80 379 -210 508 -142 141 -306 197 -486 165z"/>
</g>
</svg>
